<?xml version='1.0' encoding='utf-8'?>
<svg xmlns="http://www.w3.org/2000/svg" width="24" height="24" viewBox="0 0 24 24">
  <g>
    <path d="M12,1C5.925,1 1,5.925 1,12C1,18.075 5.925,23 12,23C18.075,23 23,18.075 23,12C23,5.925 18.075,1 12,1Z" fill="#111111" fill-rule="evenodd" />
    <path d="M12,1C5.925,1 1,5.925 1,12C1,18.075 5.925,23 12,23C18.075,23 23,18.075 23,12C23,5.925 18.075,1 12,1ZM17.207,9.707C17.598,9.317 17.598,8.683 17.207,8.293C16.817,7.902 16.183,7.902 15.793,8.293L10.5,13.586L8.207,11.293C7.817,10.902 7.183,10.902 6.793,11.293C6.402,11.683 6.402,12.317 6.793,12.707L9.793,15.707C10.183,16.098 10.817,16.098 11.207,15.707L17.207,9.707Z" fill="#FFFFFF" fill-rule="evenodd" />
  </g>
</svg>
