<?xml version='1.0' encoding='utf-8'?>
<svg xmlns="http://www.w3.org/2000/svg" width="20" height="20" viewBox="0 0 21 21">
  <g>
    <path d="M10.746,0.984L10.746,0.984A9.5,9.5 0,0 1,20.246 10.484L20.246,10.484A9.5,9.5 0,0 1,10.746 19.984L10.746,19.984A9.5,9.5 0,0 1,1.246 10.484L1.246,10.484A9.5,9.5 0,0 1,10.746 0.984z" fill="#E8301C" />
    <path d="M6.996,10.484L9.496,12.984L14.496,7.984" fill="none" stroke="#ffffff" stroke-width="2" stroke-linecap="round" stroke-linejoin="round" />
    <path d="M10.746,0.984L10.746,0.984A9.5,9.5 0,0 1,20.246 10.484L20.246,10.484A9.5,9.5 0,0 1,10.746 19.984L10.746,19.984A9.5,9.5 0,0 1,1.246 10.484L1.246,10.484A9.5,9.5 0,0 1,10.746 0.984z" fill="none" stroke="#ffffff" stroke-width="1" />
  </g>
</svg>
